# xmcd
#
# Track frame offsets:
#	150
#	15482
#	29797
#	44297
#	61222
#	76967
#	90742
#	105607
#	123895
#	139592
#
# Disc length: 1998 seconds
#
# Revision: 0
# Processed by: cddbd v1.4PL0 Copyright (c) Steve Scherf et al.
# Submitted via: EasyCDDAExtractor 4.6.0.1
#
DISCID=7907cc0a
DTITLE=Big Guitars From Memphis - Eightball
DYEAR=1996
DGENRE=Country
TTITLE0=answer to my preyers
TTITLE1=texas girl
TTITLE2=quick fix (instrumental)
TTITLE3=nowhere
TTITLE4=50/50
TTITLE5=love bit man
TTITLE6=she dreams of me
TTITLE7=treasure
TTITLE8=dr. funkentwang (instrumental)
TTITLE9=everybody
EXTD=http://nav.to/wojtus                                      (collection)
EXTT0=
EXTT1=
EXTT2=
EXTT3=
EXTT4=
EXTT5=
EXTT6=
EXTT7=
EXTT8=
EXTT9=
PLAYORDER=
